<svg xmlns="http://www.w3.org/2000/svg" version="1.1" xmlns:xlink="http://www.w3.org/1999/xlink" xmlns:svgjs="http://svgjs.com/svgjs" width="2560" height="1440" preserveAspectRatio="none" viewBox="0 0 2560 1440"><g mask="url(&quot;#SvgjsMask1029&quot;)" fill="none"><path d="M1080.03-35.54C902.25 28.56 1044.02 505.99 613.12 558.96 182.22 611.93-63.68 980.66-320.7 990.96" stroke="rgba(255, 255, 255, 0.5)" stroke-width="2"></path><path d="M1348.07-255.46C988.71-84.56 940.35 1062.17 471.71 1073.28 3.06 1084.39-132.37 446.73-404.66 410.88" stroke="rgba(255, 255, 255, 0.5)" stroke-width="2"></path><path d="M1295.73-207.23C1019.76-83.73 993.04 771.47 611.36 789.88 229.68 808.29 115.37 480.64-73.01 473.08" stroke="rgba(255, 255, 255, 0.5)" stroke-width="2"></path><path d="M2000.83-69.28C1693.8-55.25 1515.09 436.69 895.36 468.68 275.63 500.67 102.68 1040.97-210.11 1059.08" stroke="rgba(255, 255, 255, 0.5)" stroke-width="2"></path><path d="M1454.25-188.21C1170.37-80.51 1212.91 675.27 718.46 778.03 224.01 880.79 193.7 1181.41-17.33 1195.63" stroke="rgba(255, 255, 255, 0.5)" stroke-width="2"></path></g><defs><mask id="SvgjsMask1029"><rect width="2560" height="1440" fill="#ffffff"></rect></mask></defs></svg>