<svg height="368pt" viewBox="1.8 3.3 1993.2 365.9" width="2000pt" xmlns="http://www.w3.org/2000/svg"><path d="m698.5 4.6c-17.1 1.1-45.1 5-65.5 9-12.8 2.5-39.7 9-43.7 10.5l-2.3.9v60.7l14.3-3.4c68-16 137.5-18.6 169.2-6.4 10.2 3.9 15.6 7.4 22.3 14.2 9.5 9.7 14.2 22.4 14.2 38.6v7.2h-28.7c-61.1 0-108.7 6.9-143 20.8-45.4 18.3-68.5 45-72.4 83.7-3.7 37.6 8.9 68.4 36.5 88.9 13.8 10.2 40.9 21.8 56.6 24.3 1.9.3 7.3 1.4 11.9 2.5 15.2 3.5 54.7 6.9 80.6 6.9 10.2 0 31.8-1.5 50.8-3.6 18.8-2 57.5-10.4 74.7-16.2l8.5-2.9.3-106.4c.3-116.7 0-125.6-4.9-144.6-14.8-57.7-59.8-82.9-151-84.6-12.3-.3-25.1-.3-28.4-.1zm103.8 188.1 6.7.6v50.8c0 47.5-.1 50.8-1.7 51.3-7.4 2.1-29.6 5.8-43.3 7.2-19.4 1.9-48.3 1.5-65.3-1-12.7-1.9-31-7.8-39.3-12.6-7.6-4.5-16.3-13.2-19.3-19.5-1.8-3.5-2.6-7.2-2.9-12.8-.9-15.3 3.6-26.4 14.9-37 16-15.2 42.6-23.3 89.4-27 7.8-.7 54.1-.7 60.8 0zm299.2-188c-10.1.7-34.9 4.5-41.8 6.4-4 1.1-9 2.5-11.1 3s-7.7 2.6-12.4 4.5c-37.2 15.4-62 38.4-78.2 72.7-7.3 15.4-11.4 28.9-15.2 49.7-1.9 10.9-2.2 15.9-2.2 39 0 28.6 1.4 41.9 6.9 62.7 12.3 46.9 39 81.1 79 101 49.6 24.9 129.5 25.5 182.6 1.5 51.5-23.3 83.8-74.4 88.9-140.5 3.5-46.2-2.3-83.5-17.9-115.2-22.1-44.7-61.7-72.4-116.6-81.5-21.2-3.5-42.1-4.7-62-3.3zm40.4 59.9c37.2 7.7 59.8 29.7 71 69.1 3.5 12.4 4.6 20 5.6 37.8.7 11.8-.6 34.2-2.5 45.5-2.9 16.3-11.3 38.3-19 49.5-16.9 24.6-43.8 37.8-77 37.8-33.4.1-58-11.2-75.6-34.6-18.9-25.2-28.2-71-22.9-112.4 7.4-57 35.7-88.4 85-94.3 9.2-1.1 26.2-.4 35.4 1.6zm337.6-60c-1.6.2-9.1 1.1-16.5 2-33.2 4-73 15.4-103.4 29.5l-2.9 1.4.6 118c.4 64.9.7 136.6.7 159.2v41.3h76l.2-137.7.3-137.6 8-2.8c17.6-6.1 35.8-9.1 56-9.3 13-.1 16 .2 22.5 2.2 19.5 6.1 32.1 17.8 39.7 36.7l2.8 7 .3 120.8.2 120.7h76v-265l5.4-3.5c7.8-5 22.3-11.1 33.5-14.2 8.4-2.3 11.5-2.7 25.6-2.7 12.3-.1 17.5.3 22.5 1.7 21.1 5.7 34.8 18.4 41.6 38.7 1.8 5.2 1.9 11.7 2.2 125.2l.3 119.8h75.9l-.2-134.8-.3-134.7-2.8-9c-7.2-23.1-19-39.1-38.3-52-13.6-9.2-29.2-15.1-48.9-18.7-18.2-3.4-47.2-3.1-68.9.6-30 5-55.9 14.3-76.1 27.4-6.3 4-7.2 4.3-9.1 3.1-1.1-.8-6.3-4.2-11.4-7.7-24.7-16.7-53.7-24.8-91.5-25.7-9.3-.2-18.3-.2-20 .1zm-1459.4 26.1c7.1 9.3 13.5 17.5 14.2 18.3s6.6 8.5 13.2 17c6.5 8.5 13.6 17.7 15.8 20.5 2.1 2.7 7 9 10.8 14 3.8 4.9 10 13 13.9 18 3.8 4.9 10.3 13.3 14.2 18.5 4 5.2 12.7 16.5 19.4 25 6.7 8.6 12.7 16.5 13.4 17.6 1.3 2.1-3.6 8.8-41.9 57.4-3.7 4.7-8.9 11.4-11.6 15s-5.2 6.7-5.5 7c-.4.3-3.5 4.3-7.1 9-3.5 4.7-8.2 10.8-10.4 13.5-2.2 2.8-5.2 6.6-6.7 8.5s-8 10.3-14.5 18.7c-6.5 8.3-16.9 21.6-23 29.6-6.2 7.9-11.5 15.2-11.9 16.1-.6 1.5 3 1.6 42.3 1.6h42.9l10.1-13.2c5.6-7.3 12.5-16.5 15.5-20.3 3-3.9 11.4-14.8 18.7-24.3 7.3-9.6 14.9-19.5 16.9-22.1s10-13 17.6-23c13.3-17.3 14-18.1 15.7-16.4.9 1 10.8 13.9 22 28.8 11.2 14.8 23.4 31 27.2 36 3.8 4.9 14.6 19.2 24 31.7l17.2 22.8h45.4c36.1 0 45.1-.3 44.4-1.3-2.3-2.8-25.8-33.3-38.3-49.6-7.4-9.7-14.9-19.4-16.7-21.6-1.7-2.2-13.8-17.7-26.7-34.5-13-16.8-24.2-31.2-24.9-32-.6-.9-2.5-3.3-4.1-5.5-1.7-2.2-3.3-4.2-3.6-4.5s-5-6.3-10.4-13.3c-6.6-8.7-9.4-13.2-8.8-14 .5-.7 4.5-5.7 8.8-11.3 4.3-5.5 9-11.5 10.4-13.3 2.3-3.1 16.1-20.8 34.4-44.1 4.5-5.8 15.4-19.7 24.2-31 8.7-11.3 16.4-21.2 17.1-22s6.5-8.3 12.9-16.5c6.5-8.3 13.9-17.8 16.6-21.3l5-6.2h-87.7l-11.1 14.7c-31.9 42.4-75.4 99.3-75.9 99.3-.1 0-19.5-25.7-43.1-57l-42.8-57h-90.5zm400.9 154.3v171h76l.2-168.3c.2-92.5.2-169.4 0-171l-.3-2.7h-75.9zm1498 0v171h76v-342h-76zm-564.8-79.5c0 1.6.2 2.2.5 1.2.2-.9.2-2.3 0-3-.3-.6-.5.1-.5 1.8z"/></svg>